<svg width="295" height="38" viewBox="0 0 295 38" fill="none" xmlns="http://www.w3.org/2000/svg">
<path d="M8.89701 6.52513C6.25765 4.33553 7.78549 0 11.1965 0C12.0347 0 12.8472 0.294012 13.4959 0.832113L40.2377 23.016C40.8246 23.5028 41.2687 24.1432 41.522 24.8676C42.9272 28.8869 38.2225 32.2328 34.9704 29.5269L34.0542 28.7646C33.5454 28.3413 33.1604 27.7851 32.9407 27.1562C32.7204 26.5257 32.3339 25.9682 31.8231 25.5445L8.89701 6.52513ZM17.0177 37.021C20.2683 39.7269 24.9723 36.3823 23.5674 32.3641C23.3143 31.6399 22.8703 30.9999 22.2838 30.5132L7.25666 18.0467C4.55606 15.8063 0.5 17.7534 0.5 21.2902C0.5 22.5447 1.05438 23.7332 2.01091 24.5294L17.0177 37.021ZM22.7423 28.8426C23.5225 29.4897 24.1129 30.3409 24.4496 31.304L24.5818 31.6821C24.8311 32.3951 25.2677 33.0255 25.8446 33.5055C29.054 36.1757 33.6967 32.8738 32.31 28.9074L32.2443 28.7195C31.991 27.9949 31.5467 27.3545 30.9597 26.8676L5.98077 6.15091C3.78991 4.33388 0.5 5.91349 0.5 8.78243C0.5 9.80211 0.951543 10.768 1.73018 11.4138L22.7423 28.8426Z" fill="#FF9900"/>
<path d="M47.785 10.6608H51.0744V30.6048H47.785V10.6608Z" fill="black"/>
<path d="M61.8178 16.3876C65.3322 16.3876 67.5252 18.7808 67.5252 22.6557V30.6048H64.3763V23.0546C64.3763 20.8607 63.0548 19.4362 61.0587 19.4362C59.0062 19.4362 57.6567 20.8607 57.6567 23.0546V30.6048H54.5359V16.6725H57.6567V18.8663C58.5283 17.2993 59.9903 16.3876 61.8178 16.3876Z" fill="black"/>
<path d="M83.9192 23.3395C83.9192 23.7099 83.8911 24.4222 83.8349 24.6786H73.2916C73.6853 26.73 75.091 28.0121 77.3121 28.0121C78.999 28.0121 80.3205 27.2143 80.6016 26.0177H83.7505C83.2444 28.9523 80.6297 30.8897 77.2559 30.8897C73.2354 30.8897 70.1146 27.7272 70.1146 23.5674C70.1146 19.5216 73.2354 16.3876 77.1997 16.3876C80.9109 16.3876 83.9192 19.2652 83.9192 23.3395ZM73.376 21.9719H80.5173C80.2361 20.3764 78.9147 19.2652 77.031 19.2652C75.1754 19.2652 73.8258 20.2624 73.376 21.9719Z" fill="black"/>
<path d="M96.988 10.6608H100.137V30.6048H96.988V28.1546C96.0039 29.8925 94.317 30.8897 92.124 30.8897C88.469 30.8897 85.5451 27.6417 85.5451 23.6244C85.5451 19.6071 88.469 16.3876 92.124 16.3876C94.317 16.3876 96.0039 17.3848 96.988 19.1227V10.6608ZM92.7988 27.8696C95.1886 27.8696 96.988 26.0462 96.988 23.6244C96.988 21.2311 95.1886 19.4077 92.7988 19.4077C90.4652 19.4077 88.6377 21.2881 88.6377 23.6244C88.6377 25.9892 90.4652 27.8696 92.7988 27.8696Z" fill="black"/>
<path d="M105.037 10.2049C106.134 10.2049 107.062 11.1451 107.062 12.2278C107.062 13.3675 106.134 14.2792 105.037 14.2792C103.941 14.2792 103.041 13.3675 103.041 12.2278C103.041 11.1451 103.941 10.2049 105.037 10.2049ZM103.463 16.6725H106.584V30.6048H103.463V16.6725Z" fill="black"/>
<path d="M117.929 19.6926H114.33V25.3054C114.33 27.0719 115.398 27.7842 116.917 27.7842C117.254 27.7842 117.619 27.7557 117.929 27.6702V30.6048C117.451 30.7188 116.748 30.7758 116.242 30.7758C113.205 30.7758 111.181 28.8953 111.181 25.3624V19.6926H108.566V16.6725H111.181V12.9401H114.33V16.6725H117.929V19.6926Z" fill="black"/>
<path d="M130.402 16.6725H133.551V30.6048H130.402V28.1546C129.418 29.8925 127.731 30.8897 125.538 30.8897C121.883 30.8897 118.959 27.6417 118.959 23.6244C118.959 19.6071 121.883 16.3876 125.538 16.3876C127.731 16.3876 129.418 17.3848 130.402 19.1227V16.6725ZM126.213 27.8696C128.603 27.8696 130.402 26.0462 130.402 23.6244C130.402 21.2311 128.603 19.4077 126.213 19.4077C123.88 19.4077 122.052 21.2881 122.052 23.6244C122.052 25.9892 123.88 27.8696 126.213 27.8696Z" fill="black"/>
<path d="M143.196 30.6048V10.6608H147.16L153.711 25.7043L160.458 10.6608H163.832V30.6048H160.543V17.2138L154.667 30.6048H152.249L146.485 17.2138V30.6048H143.196Z" fill="black"/>
<path d="M180.401 23.3395C180.401 23.7099 180.373 24.4222 180.316 24.6786H169.773C170.167 26.73 171.572 28.0121 173.794 28.0121C175.48 28.0121 176.802 27.2143 177.083 26.0177H180.232C179.726 28.9523 177.111 30.8897 173.737 30.8897C169.717 30.8897 166.596 27.7272 166.596 23.5674C166.596 19.5216 169.717 16.3876 173.681 16.3876C177.392 16.3876 180.401 19.2652 180.401 23.3395ZM169.857 21.9719H176.999C176.718 20.3764 175.396 19.2652 173.512 19.2652C171.657 19.2652 170.307 20.2624 169.857 21.9719Z" fill="black"/>
<path d="M190.661 19.6926H187.062V25.3054C187.062 27.0719 188.13 27.7842 189.648 27.7842C189.986 27.7842 190.351 27.7557 190.661 27.6702V30.6048C190.183 30.7188 189.48 30.7758 188.974 30.7758C185.937 30.7758 183.913 28.8953 183.913 25.3624V19.6926H181.298V16.6725H183.913V12.9401H187.062V16.6725H190.661V19.6926Z" fill="black"/>
<path d="M203.134 16.6725H206.283V30.6048H203.134V28.1546C202.15 29.8925 200.463 30.8897 198.27 30.8897C194.615 30.8897 191.691 27.6417 191.691 23.6244C191.691 19.6071 194.615 16.3876 198.27 16.3876C200.463 16.3876 202.15 17.3848 203.134 19.1227V16.6725ZM198.945 27.8696C201.335 27.8696 203.134 26.0462 203.134 23.6244C203.134 21.2311 201.335 19.4077 198.945 19.4077C196.611 19.4077 194.784 21.2881 194.784 23.6244C194.784 25.9892 196.611 27.8696 198.945 27.8696Z" fill="black"/>
<path d="M212.73 10.6608V30.6048H209.609V10.6608H212.73Z" fill="black"/>
<path d="M226.971 10.8032L223.766 15.0769H220.842L223.203 10.8032H226.971ZM225.874 16.6725H229.023V30.6048H225.874V28.411C225.003 29.978 223.569 30.8897 221.741 30.8897C218.199 30.8897 216.034 28.4965 216.034 24.5931V16.6725H219.155V24.2227C219.155 26.4166 220.476 27.8412 222.5 27.8412C224.525 27.8412 225.874 26.4166 225.874 24.2227V16.6725Z" fill="black"/>
<path d="M239.147 16.3876C239.569 16.3876 240.019 16.473 240.441 16.5585V19.4646C239.991 19.3507 239.513 19.2652 239.063 19.2652C237.067 19.2652 235.436 20.6613 235.436 23.1685V30.6048H232.315V16.6725H235.436V18.5244C236.252 17.1853 237.517 16.3876 239.147 16.3876Z" fill="black"/>
<path d="M252.363 16.644H255.512V30.092C255.512 33.9953 252.504 36.4171 248.511 36.4171C245.756 36.4171 241.792 35.249 241.623 31.3456H244.744C244.828 32.8842 246.459 33.7674 248.427 33.7674C250.592 33.7674 252.363 32.3428 252.363 30.206V27.8127C251.379 29.5222 249.692 30.4909 247.499 30.4909C243.844 30.4909 240.92 27.3283 240.92 23.425C240.92 19.5216 243.844 16.3876 247.499 16.3876C249.692 16.3876 251.379 17.3563 252.363 19.0373V16.644ZM248.174 27.5277C250.564 27.5277 252.363 25.7898 252.363 23.425C252.363 21.0887 250.564 19.3222 248.174 19.3222C245.84 19.3222 244.013 21.1456 244.013 23.425C244.013 25.7328 245.84 27.5277 248.174 27.5277Z" fill="black"/>
<path d="M260.413 10.2049C261.509 10.2049 262.437 11.1451 262.437 12.2278C262.437 13.3675 261.509 14.2792 260.413 14.2792C259.316 14.2792 258.417 13.3675 258.417 12.2278C258.417 11.1451 259.316 10.2049 260.413 10.2049ZM258.838 16.6725H261.959V30.6048H258.838V16.6725Z" fill="black"/>
<path d="M271.673 30.8897C267.653 30.8897 264.56 27.7842 264.56 23.6529C264.56 19.5216 267.653 16.3876 271.673 16.3876C274.991 16.3876 277.831 18.6384 278.252 21.6585H275.047C274.71 20.3764 273.304 19.4362 271.673 19.4362C269.396 19.4362 267.653 21.2596 267.653 23.6529C267.653 26.0177 269.396 27.8412 271.673 27.8412C273.304 27.8412 274.738 26.9009 275.075 25.5049H278.28C277.915 28.6674 275.019 30.8897 271.673 30.8897Z" fill="black"/>
<path d="M291.351 16.6725H294.5V30.6048H291.351V28.1546C290.367 29.8925 288.68 30.8897 286.487 30.8897C282.832 30.8897 279.908 27.6417 279.908 23.6244C279.908 19.6071 282.832 16.3876 286.487 16.3876C288.68 16.3876 290.367 17.3848 291.351 19.1227V16.6725ZM287.162 27.8696C289.552 27.8696 291.351 26.0462 291.351 23.6244C291.351 21.2311 289.552 19.4077 287.162 19.4077C284.828 19.4077 283.001 21.2881 283.001 23.6244C283.001 25.9892 284.828 27.8696 287.162 27.8696Z" fill="black"/>
</svg>
